<svg width="101" height="84" viewBox="0 0 101 84" fill="none" xmlns="http://www.w3.org/2000/svg">
<g filter="url(#filter0_d_2143_357)">
<path fill-rule="evenodd" clip-rule="evenodd" d="M78.2944 0.996094L66.05 19.4152L53.3953 0.996094H78.2944ZM64.1059 23.6264H36.9431L50.5226 75.0264L64.1059 23.6264ZM37.85 20.6082H63.1972L50.5226 2.16009L37.85 20.6082ZM34.9976 19.4152L47.6511 0.996094H22.7541L34.9976 19.4152ZM47.645 75.9962L33.809 23.6264H3.99988L47.645 75.9962ZM4.0425 20.6082H32.1569L19.9099 2.18567L4.0425 20.6082ZM81.1165 2.22077L68.8923 20.6082H96.9573L81.1165 2.22077ZM67.2386 23.6264L53.4007 75.9908L97 23.6264H67.2386Z" fill="white"/>
</g>
<defs>
<filter id="filter0_d_2143_357" x="-0.00012207" y="0.996094" width="101" height="83.0001" filterUnits="userSpaceOnUse" color-interpolation-filters="sRGB">
<feFlood flood-opacity="0" result="BackgroundImageFix"/>
<feColorMatrix in="SourceAlpha" type="matrix" values="0 0 0 0 0 0 0 0 0 0 0 0 0 0 0 0 0 0 127 0" result="hardAlpha"/>
<feOffset dy="4"/>
<feGaussianBlur stdDeviation="2"/>
<feComposite in2="hardAlpha" operator="out"/>
<feColorMatrix type="matrix" values="0 0 0 0 0 0 0 0 0 0 0 0 0 0 0 0 0 0 0.25 0"/>
<feBlend mode="normal" in2="BackgroundImageFix" result="effect1_dropShadow_2143_357"/>
<feBlend mode="normal" in="SourceGraphic" in2="effect1_dropShadow_2143_357" result="shape"/>
</filter>
</defs>
</svg>
